<?xml version="1.0" encoding="utf-8"?>
<!-- Generator: Adobe Illustrator 22.0.0, SVG Export Plug-In . SVG Version: 6.00 Build 0)  -->
<svg version="1.1" id="Layer_1" xmlns="http://www.w3.org/2000/svg" xmlns:xlink="http://www.w3.org/1999/xlink" x="0px" y="0px"
	 viewBox="0 0 766 768" style="enable-background:new 0 0 766 768;" xml:space="preserve">
<style type="text/css">
	.st0{fill:#EF9616;}
	.st1{fill:#F7931E;}
	.st2{fill:none;stroke:#EF9616;stroke-width:79.1668;stroke-miterlimit:10;}
	.st3{fill:none;stroke:#EF9616;stroke-width:80.4692;stroke-miterlimit:10;}
</style>
<g>
	<g>
		<path class="st0" d="M521.2,142.6c47,0,85.2,38.2,85.2,85.2v276.5c0,47-38.2,85.2-85.2,85.2H244.8c-47,0-85.2-38.2-85.2-85.2
			V227.8c0-47,38.2-85.2,85.2-85.2H521.2 M521.2,101H244.8c-70,0-126.8,56.8-126.8,126.8v276.5c0,70,56.8,126.8,126.8,126.8h276.5
			c70,0,126.8-56.8,126.8-126.8V227.8C648,157.8,591.2,101,521.2,101L521.2,101z"/>
	</g>
	<g>
		<path class="st0" d="M384.7,274.2c53.5,0,97,43.5,97,97s-43.5,97-97,97s-97-43.5-97-97S331.2,274.2,384.7,274.2 M384.7,232.6
			c-76.5,0-138.6,62-138.6,138.6s62,138.6,138.6,138.6s138.6-62,138.6-138.6S461.3,232.6,384.7,232.6L384.7,232.6z"/>
	</g>
	<circle class="st1" cx="538.9" cy="210.1" r="36.4"/>
</g>
</svg>
